PathFileType	4	(X/Y/Z)	C:\Users\°ÂÌØÂü\Desktop\20210112\bx_n_5_1802-Unnamed.trc
DataRate	CameraRate	NumFrames	NumMarkers	Units	OrigDataRate	OrigDataStartFrame	OrigNumFrames
50.00	50.00	       5	0	mm	50.00	458	       523
Frame#	Time	
		

458	9.140	-663.95374	126.51947	1853.08374				-715.16461	69.26064	215.95284	-588.97009	222.54260	820.83441	-672.24078	51.45192	159.65996	-588.80359	-7.11048	807.76331	-649.68530	-54.93005	1546.45508	-662.65015	17.05784	521.07562	-699.56476	272.49185	746.53589	-668.69128	208.48701	537.29535	-765.46991	256.61621	504.35858	-517.59265	-73.11285	143.05652	-549.84375	-32.46527	162.97469	-789.44202	42.67487	176.72119	-710.89789	155.11288	216.88797	-597.70221	22.79861	169.40602	-675.12561	174.92259	158.43369	-795.39111	176.52954	185.11101	-769.10706	226.16273	204.89946	-592.75830	221.68477	174.51819	-882.62158	296.14899	144.58987	-556.73346	256.77963	164.54379	-662.15912	299.39514	156.34018	-625.46545	308.09238	157.73531	-528.49432	304.09988	146.50446	-693.82813	291.23633	877.69879	-713.93359	-28.09963	571.00287	-760.27100	-38.57907	491.93036	-759.19147	-17.63652	207.87979	-875.85522	-78.73365	141.22168	-665.41150	-69.10303	878.22748	-688.96216	-56.16130	762.88049	-571.35077	114.99110	1356.74878	-707.18097	-31.24669	618.02600	-803.19153	97.61537	1058.24304	-724.32465	247.38487	578.90424	-608.97400	-77.68839	156.57173	-651.24109	-70.15677	159.83289	-725.98438	251.64972	643.88269	-684.34241	75.92069	577.12726	-609.08759	246.80785	1069.27783	-678.96198	147.85632	582.92401	-593.87653	-3.31286	1061.62354				-661.57648	301.98911	1539.24487	
459	9.160	-667.41809	126.45527	1853.19446				-714.96863	69.17323	216.04034	-587.59259	222.66435	820.08527	-672.08179	51.70964	159.47319	-586.46265	-7.32844	807.41394	-651.75262	-55.27341	1546.61975	-662.07990	16.91825	521.07806	-699.27338	272.42004	746.50641	-669.77130	208.63527	537.30133	-766.35004	256.44202	504.30725	-517.53448	-72.95721	143.09798	-549.81213	-32.43038	163.07545	-789.55383	42.56476	176.56425	-710.84412	155.02293	217.02988	-597.65637	22.72223	169.42847	-674.88556	174.60947	158.65298	-795.29761	176.55858	184.93735	-769.30829	225.83003	204.91167	-592.65277	221.80846	174.92047	-882.50604	296.12839	144.65137	-556.62158	256.60367	164.43079	-662.16827	299.39178	156.18994	-625.43079	308.12628	157.59427	-528.29108	304.34607	146.62177	-692.34808	291.56241	877.77087	-713.29010	-28.63198	570.79126	-759.52155	-38.74580	491.46384	-759.17743	-17.67245	207.76471	-875.95447	-78.70157	141.15225	-663.18884	-69.23617	877.80096	-687.22504	-56.30217	762.99542	-571.79272	114.74576	1357.06445	-706.46063	-31.63764	618.05481	-801.02051	97.10165	1057.76343	-725.24365	247.39551	578.59552	-609.43677	-77.87161	156.75378	-651.34418	-70.16630	159.88942	-727.04437	251.20300	644.39557	-684.01617	75.70567	576.97925	-607.34875	247.00246	1069.18591	-679.64447	147.90373	583.11249	-591.66736	-2.82685	1061.37830				-665.05475	301.17413	1538.96106	
460	9.180	-670.40955	125.83705	1853.26904				-715.14825	69.33904	216.13469	-586.65729	222.74651	819.28223	-672.03082	51.75098	159.29639	-584.85303	-6.77475	807.18964	-653.81390	-55.86507	1546.87781	-661.58252	16.85762	520.85516	-698.89355	272.29013	746.25470	-670.44000	208.64934	537.28113	-767.21539	256.35214	504.37982	-517.57349	-72.84197	143.22604	-549.85059	-32.39032	163.10048	-789.45715	42.60528	176.66875	-711.13336	155.25566	216.97485	-597.61133	23.00795	169.36282	-674.88556	174.60947	158.65298	-795.37769	176.52699	185.17909	-769.48224	225.95882	205.09145	-592.67554	221.86337	174.62927	-882.77252	296.20111	144.65584	-556.57928	256.77933	164.22023	-662.24164	299.67517	155.99776	-625.44287	308.36099	157.69551	-528.22021	304.39990	146.63866	-690.97974	290.99893	877.43787	-712.81372	-29.02748	571.26984	-758.86047	-38.98570	491.45657	-759.16388	-17.68320	207.66499	-875.85034	-78.68372	141.27127	-660.41772	-69.45259	877.35083	-685.21973	-56.32086	762.61121	-571.97998	114.55233	1357.22559	-705.35004	-31.61839	617.89276	-798.72272	96.57066	1056.96704	-726.24957	247.52791	578.72540	-609.39044	-77.79760	156.85347	-651.24109	-70.15677	159.83289	-727.36475	251.35652	644.35291	-683.53833	75.85571	576.81024	-605.09137	246.52542	1068.63110	-680.08691	148.28760	582.90387	-589.89313	-2.78214	1060.40186				-667.48358	301.51920	1538.84216	
461	9.200	-673.49005	125.47691	1853.18420				-714.98151	69.28308	215.87624	-585.11627	222.71536	818.65363	-671.87109	51.68732	159.34178	-583.17877	-6.43479	806.68365	-655.72333	-56.02040	1547.09851	-660.95941	17.02828	520.97858	-697.97406	272.56305	746.34027	-670.56329	208.79834	537.55737	-767.44720	256.44852	504.52298	-517.49133	-72.83728	143.10434	-549.74457	-32.45247	163.04057	-790.10211	42.70821	177.17050	-711.15112	154.99033	216.93970	-597.50604	23.00363	169.29568	-674.88556	174.60947	158.65298	-795.12036	176.63414	185.26147	-769.35736	226.04070	205.06306	-592.67169	222.00905	174.63559	-882.53949	296.08374	144.57086	-556.78876	256.82623	164.43365	-662.16461	299.60501	155.79887	-625.36011	308.40369	157.43784	-528.29108	304.34607	146.62177	-689.10327	291.05759	877.65503	-711.85345	-29.11301	571.12244	-758.44427	-39.34930	491.62146	-759.01727	-17.50133	207.60510	-875.93073	-78.79627	141.25227	-658.72998	-69.54167	877.33759	-683.54224	-56.44186	762.18774	-572.21350	114.07750	1357.64233	-704.30530	-32.07576	618.10791	-796.59003	96.52917	1056.71448	-726.35669	247.41093	578.68964	-609.06635	-77.59963	156.29251	-651.34637	-70.08457	159.92241	-727.28601	251.13625	644.65259	-683.14850	75.46642	576.76563	-603.26349	246.36098	1068.57861	-680.32361	147.98817	582.67853	-588.23206	-2.45546	1060.14893				-669.77020	301.23282	1538.32568	
462	9.220	-676.41278	125.06831	1853.11047				-714.83917	69.35553	216.02669	-583.76672	222.65768	818.27045	-671.85846	51.86889	159.28217	-581.57678	-6.68338	806.29346	-657.30316	-56.57222	1547.23755	-660.73779	17.00751	520.80511	-696.91302	272.55783	746.64349	-670.59106	208.63020	537.66974	-767.52948	256.50720	504.58551	-517.59845	-72.67928	142.79137	-549.64087	-32.41676	162.98392	-789.23804	42.94433	176.64655	-711.12512	154.79074	217.00107	-597.54828	22.98896	169.11954	-674.66638	174.58693	158.93947	-795.12036	176.63414	185.26147	-769.39063	225.84570	205.02798	-592.36395	221.78481	174.72624	-882.62158	296.14899	144.58987	-556.52588	256.77878	164.30145	-662.01184	299.61670	155.94302	-625.43964	308.25128	157.43578	-528.22021	304.39990	146.63866	-687.89191	290.42966	877.34186	-711.38226	-28.79071	570.94037	-758.27112	-39.38906	491.73795	-758.88849	-17.70619	207.94614	-875.93561	-78.84620	141.20265	-656.90942	-70.04135	877.39594	-682.26135	-56.85085	762.25708	-572.58429	113.81314	1357.99133	-703.84918	-32.31197	618.23511	-794.66925	95.99086	1055.95142	-726.24957	247.52791	578.72540	-609.01074	-77.51002	156.41151	-651.31915	-70.07928	159.77045	-726.91028	251.14076	644.75873	-682.90179	75.31590	576.78619	-601.67346	245.95456	1068.39856	-680.79346	148.23335	582.19012	-586.19513	-2.68560	1060.20117				-671.84845	301.04498	1538.02026	
